HIERARCHY
ROOT Hips
{
	OFFSET 0.000000 0.000000 0.000000
	CHANNELS 6 Xposition Yposition Zposition Zrotation Yrotation Xrotation 
	JOINT LeftUpLeg_virtual
	{
		OFFSET 0.000000 0.000000 0.000000
		CHANNELS 3 Zrotation Yrotation Xrotation
		JOINT LeftUpLeg
		{
			OFFSET 8.479694 -4.795517 -0.379053
			CHANNELS 3 Zrotation Yrotation Xrotation
			JOINT LeftLeg
			{
				OFFSET 0.485052 -32.551468 0.112863
				CHANNELS 3 Zrotation Yrotation Xrotation
				JOINT LeftFoot
				{
					OFFSET 0.438033 -32.635670 -3.012641
					CHANNELS 3 Zrotation Yrotation Xrotation
					JOINT LeftToeBase
					{
						OFFSET 0.970169 -13.225353 11.864223
						CHANNELS 3 Zrotation Yrotation Xrotation
						End Site
						{
							OFFSET 0.000000 0.000000 0.000000
						}
					}
				}
			}
		}
	}
	JOINT RightUpLeg_virtual
	{
		OFFSET 0.000000 0.000000 0.000000
		CHANNELS 3 Zrotation Yrotation Xrotation
		JOINT RightUpLeg
		{
			OFFSET -8.479694 -4.795517 -0.379053
			CHANNELS 3 Zrotation Yrotation Xrotation
			JOINT RightLeg
			{
				OFFSET -0.484100 -32.551483 0.112903
				CHANNELS 3 Zrotation Yrotation Xrotation
				JOINT RightFoot
				{
					OFFSET -0.438985 -32.635651 -3.012681
					CHANNELS 3 Zrotation Yrotation Xrotation
					JOINT RightToeBase
					{
						OFFSET -0.970169 -13.225354 11.864223
						CHANNELS 3 Zrotation Yrotation Xrotation
						End Site
						{
							OFFSET 0.000000 0.000000 0.000000
						}
					}
				}
			}
		}
	}
	JOINT Spine_virtual
	{
		OFFSET 0.000000 0.000000 0.000000
		CHANNELS 3 Zrotation Yrotation Xrotation
		JOINT Spine
		{
			OFFSET 0.000000 7.722015 1.166203
			CHANNELS 3 Zrotation Yrotation Xrotation
			JOINT Spine1
			{
				OFFSET 0.000000 12.024086 0.248766
				CHANNELS 3 Zrotation Yrotation Xrotation
				JOINT Spine2
				{
					OFFSET -0.000000 11.503036 -0.491240
					CHANNELS 3 Zrotation Yrotation Xrotation
					JOINT Neck_virtual
					{
						OFFSET 0.000000 0.000000 0.000000
						CHANNELS 3 Zrotation Yrotation Xrotation
						JOINT Neck
						{
							OFFSET 0.000000 18.430687 -3.123054
							CHANNELS 3 Zrotation Yrotation Xrotation
							JOINT Head
							{
								OFFSET -0.000000 9.051071 1.034021
								CHANNELS 3 Zrotation Yrotation Xrotation
								End Site
								{
									OFFSET 0.000000 0.000000 0.000000
								}
							}
						}
					}
					JOINT LeftShoulder_virtual
					{
						OFFSET 0.000000 0.000000 0.000000
						CHANNELS 3 Zrotation Yrotation Xrotation
						JOINT LeftShoulder
						{
							OFFSET 6.197824 13.665230 -4.064723
							CHANNELS 3 Zrotation Yrotation Xrotation
							JOINT LeftArm
							{
								OFFSET 7.778132 -0.187073 -1.709282
								CHANNELS 3 Zrotation Yrotation Xrotation
								JOINT LeftForeArm
								{
									OFFSET 21.954697 0.000000 -2.041093
									CHANNELS 3 Zrotation Yrotation Xrotation
									JOINT LeftHand
									{
										OFFSET 22.992908 0.000000 -0.870901
										CHANNELS 3 Zrotation Yrotation Xrotation
										End Site
										{
											OFFSET 0.000000 0.000000 0.000000
										}
									}
								}
							}
						}
					}
					JOINT RightShoulder_virtual
					{
						OFFSET 0.000000 0.000000 0.000000
						CHANNELS 3 Zrotation Yrotation Xrotation
						JOINT RightShoulder
						{
							OFFSET -6.197824 13.665230 -4.064723
							CHANNELS 3 Zrotation Yrotation Xrotation
							JOINT RightArm
							{
								OFFSET -7.778132 -0.187073 -1.709282
								CHANNELS 3 Zrotation Yrotation Xrotation
								JOINT RightForeArm
								{
									OFFSET -21.954697 0.000000 -2.041093
									CHANNELS 3 Zrotation Yrotation Xrotation
									JOINT RightHand
									{
										OFFSET -22.992908 0.000000 -0.870901
										CHANNELS 3 Zrotation Yrotation Xrotation
										End Site
										{
											OFFSET 0.000000 0.000000 0.000000
										}
									}
								}
							}
						}
					}
				}
			}
		}
	}
}
MOTION
Frames: 7
Frame Time: 0.033333
6.176844 81.059669 48.608673 -179.967193 1.185204 179.918712 -4.401317 -1.645106 8.178398 -0.807356 1.922895 -25.043073 7.848430 7.832096 30.764845 4.169248 -6.214548 -8.541379 0.000000 0.000000 0.000000 -0.518634 -2.301819 7.458986 1.324502 9.263282 -19.793340 -1.659876 5.070662 31.077989 5.382020 7.572486 -16.000029 0.000000 0.000000 0.000000 0.125928 1.057091 -4.901512 1.007911 -2.818460 -4.566088 -1.458465 -0.998094 8.835577 -0.024041 -0.072003 0.005154 -2.061849 0.676506 9.537289 -0.460423 -1.511976 -10.453622 0.000000 0.000000 0.000000 -0.177499 1.157445 7.333808 -8.352188 -2.709116 3.797546 -64.570915 0.639113 10.934497 5.786114 -33.250344 11.477586 0.000000 0.000000 0.000000 -4.787998 2.766667 6.381426 28.380889 1.200464 6.882559 55.935489 2.932121 22.542010 -7.492194 28.380334 -5.441673 0.000000 0.000000 0.000000 
6.189207 81.064636 48.645626 -179.895968 0.839093 179.886269 -4.325012 -1.201013 8.158123 -1.246797 2.557436 -25.048110 8.293456 8.493302 31.066866 4.969616 -5.243482 -8.510849 0.000000 0.000000 0.000000 -0.667658 -2.227817 7.552942 1.166699 9.473483 -19.739745 -1.792041 5.313085 31.282061 5.177867 7.370158 -16.674121 0.000000 0.000000 0.000000 0.225103 1.023910 -4.846037 0.948692 -2.904651 -4.536187 -1.454348 -1.074431 8.846205 -0.004004 -0.158575 -0.027520 -2.000522 0.860723 9.625260 -0.396195 -1.745174 -10.471846 0.000000 0.000000 0.000000 -0.195300 1.133507 7.464966 -8.398942 -2.682896 3.787648 -64.621888 1.061065 10.921794 5.849802 -32.968917 11.470746 0.000000 0.000000 0.000000 -4.788696 2.755945 6.368825 28.469031 0.993588 6.862819 56.034510 2.619355 22.509257 -7.583778 28.167360 -5.546130 0.000000 0.000000 0.000000 
6.202508 81.063507 48.693592 -179.920406 0.860672 179.884684 -4.330711 -1.152341 8.145809 -1.260231 2.551316 -25.053911 8.276361 8.505717 31.000169 4.948207 -5.229579 -8.478999 0.000000 0.000000 0.000000 -0.691376 -2.186958 7.538768 1.174202 9.475920 -19.783452 -1.787587 5.302302 31.308272 5.178460 7.370314 -16.651112 0.000000 0.000000 0.000000 0.222229 1.098790 -4.797325 0.924110 -2.910856 -4.546687 -1.456830 -1.074286 8.865904 -0.038349 -0.126097 0.033128 -1.932877 0.777174 9.605437 -0.409391 -1.718651 -10.455579 0.000000 0.000000 0.000000 -0.120418 1.117359 7.443599 -8.419478 -2.613014 3.806034 -64.733985 1.589595 10.824225 5.899460 -32.684487 11.343997 0.000000 0.000000 0.000000 -4.723125 2.737493 6.313108 28.492021 0.830195 6.764409 56.177794 2.044536 22.278930 -7.526211 27.883107 -5.485181 0.000000 0.000000 0.000000 
6.217098 81.066833 48.747791 -179.904492 0.844980 179.888318 -4.356367 -1.154169 8.139135 -1.172019 2.530530 -25.038582 8.259007 8.536446 30.914355 4.891184 -5.247615 -8.439679 0.000000 0.000000 0.000000 -0.682563 -2.184979 7.527019 1.204075 9.490284 -19.828377 -1.788047 5.268946 31.318347 5.169397 7.353488 -16.588240 0.000000 0.000000 0.000000 0.250259 1.101326 -4.769498 0.905942 -2.960040 -4.537506 -1.450511 -1.116656 8.882277 -0.048441 -0.148932 -0.000964 -1.960243 0.736470 9.643909 -0.467061 -1.653117 -10.456454 0.000000 0.000000 0.000000 -0.131529 1.223372 7.486415 -8.403375 -2.566702 3.787473 -64.880547 2.075955 10.641799 5.899339 -32.510713 11.351167 0.000000 0.000000 0.000000 -4.674270 2.759527 6.440012 28.505508 0.764473 6.758189 56.250341 1.528422 22.154161 -7.504371 27.654575 -5.612804 0.000000 0.000000 0.000000 
6.232372 81.072533 48.801334 -179.907155 0.853722 179.914136 -4.284669 -1.140086 8.112742 -1.285908 2.503502 -25.049258 8.309192 8.525741 30.835606 4.876826 -5.202333 -8.363924 0.000000 0.000000 0.000000 -0.697913 -2.158309 7.495047 1.217644 9.499320 -19.880550 -1.788373 5.261194 31.338134 5.163298 7.343804 -16.532963 0.000000 0.000000 0.000000 0.211416 1.106790 -4.770284 0.913915 -2.929334 -4.549802 -1.401082 -1.101930 8.951412 0.024242 -0.157061 -0.013172 -1.993519 0.642132 9.668407 -0.505265 -1.603500 -10.423150 0.000000 0.000000 0.000000 -0.184445 1.121225 7.482938 -8.393075 -2.464128 3.825807 -64.942572 2.329838 10.581602 5.916460 -32.572113 11.246979 0.000000 0.000000 0.000000 -4.763396 2.784417 6.409920 28.423458 0.627299 6.673401 56.614144 1.006499 21.896504 -7.564544 27.384557 -5.549803 0.000000 0.000000 0.000000 
6.250004 81.079964 48.848133 -179.907292 0.875181 179.897757 -4.290855 -1.109939 8.123062 -1.244534 2.490042 -25.039982 8.284961 8.548188 30.757814 4.840708 -5.192156 -8.292213 0.000000 0.000000 0.000000 -0.695196 -2.114076 7.490716 1.237007 9.518741 -19.897989 -1.792797 5.259351 31.345859 5.139336 7.314856 -16.480242 0.000000 0.000000 0.000000 0.206947 1.152404 -4.752724 0.904695 -2.950942 -4.511838 -1.403727 -1.109845 8.950713 0.019192 -0.161253 0.021706 -1.980970 0.630901 9.674932 -0.553271 -1.551622 -10.419217 0.000000 0.000000 0.000000 -0.189602 1.145375 7.520677 -8.287561 -2.572246 3.819543 -64.950051 2.374936 10.563937 5.911826 -32.772890 11.149213 0.000000 0.000000 0.000000 -4.742722 2.736178 6.461720 28.297426 0.575151 6.584368 56.816334 0.682957 21.716242 -7.569082 27.265120 -5.547090 0.000000 0.000000 0.000000 
6.268303 81.087654 48.881824 -179.908221 0.916118 179.925378 -4.261011 -1.055621 8.110878 -1.267147 2.497305 -25.077289 8.272413 8.554570 30.734834 4.815499 -5.170048 -8.227733 0.000000 0.000000 0.000000 -0.690363 -2.026348 7.470415 1.239795 9.529726 -19.941565 -1.795863 5.267380 31.351678 5.118903 7.294901 -16.450367 0.000000 0.000000 0.000000 0.169003 1.216780 -4.779183 0.903223 -2.959003 -4.525387 -1.400696 -1.114547 8.993712 0.017652 -0.128593 0.020729 -1.989849 0.646951 9.734390 -0.608311 -1.511968 -10.410603 0.000000 0.000000 0.000000 -0.171985 1.007953 7.523225 -8.199155 -2.503389 3.834717 -64.913230 2.113009 10.665889 5.818599 -33.242213 11.131696 0.000000 0.000000 0.000000 -4.757512 2.727744 6.486982 28.247309 0.506115 6.510127 57.003929 0.460875 21.553188 -7.561660 27.297730 -5.528810 0.000000 0.000000 0.000000 
